<svg xmlns="http://www.w3.org/2000/svg" viewBox="0 0 253.72 149.11"><title>Fichier 2</title><g id="Calque_2" data-name="Calque 2"><g id="Calque_2-2" data-name="Calque 2"><path d="M238.84,29.21c-11.76.36-23.73.76-35.24-2.13A51.64,51.64,0,0,1,188.88,21c-4.51-2.79-8.24-6.54-12.18-10A44.32,44.32,0,0,0,164,2.66,37.81,37.81,0,0,0,149.52,0a40,40,0,0,0-26.23,10.36,45.36,45.36,0,0,0-13.93,24.11,52.56,52.56,0,0,0,3.32,31.62c1.71,4,4.25,8.18,8.24,10.23,4.28,2.19,9,1.11,12.58-2,3.95-3.45,5.39-8.66,6.05-13.67.7-5.3.51-11.07,2.92-16,.82-1.67,2.8-4.37,4.9-2.82s1.65,4.77,1.26,7a36.32,36.32,0,0,0,.51,15.39A34.24,34.24,0,0,0,167.4,86.36a35.1,35.1,0,0,0,6.6,2.37c1.87.47,2.67-2.42.79-2.89a31.14,31.14,0,0,1-23.74-32.27c.27-4.54,2.58-10.31-1.57-13.83a5.22,5.22,0,0,0-6.06-.58,10.36,10.36,0,0,0-4.14,5.39c-2,4.83-2,10.14-2.62,15.25-.58,4.84-1.91,10.2-6.17,13.12-3.93,2.69-8.22,1.63-11.28-1.76s-4.88-8.4-6.12-12.89a50,50,0,0,1-1.77-15.77,43.27,43.27,0,0,1,10.27-26.14,37.79,37.79,0,0,1,23.52-13,35.15,35.15,0,0,1,27.21,7.86c3.93,3.23,7.47,6.92,11.52,10a49.29,49.29,0,0,0,13.38,7.11C207.69,32,219,32.59,230,32.43c3,0,5.92-.13,8.88-.22,1.93-.06,1.94-3.06,0-3Z"/><path d="M111.7,32.79l-58.44-19L38.83,9.13c-4.19-1.35-8.4-3-12.79-3.59-3.69-.49-7.63,0-10.42,2.66-2.57,2.48-3.2,6.21-2.58,9.62C14.63,26.42,23.56,30,30.67,33.05L58.88,45.27,87.1,57.5c3.05,1.32,7.54,2.84,8.85,6.26,1.58,4.1-3.14,6.79-6.39,7.55a68.86,68.86,0,0,1-7,1l-7.66,1-15.32,2-30.4,3.88c-5.08.65-10.17,1.28-15.25,2-3.48.45-7.23,1-10.13,3.15C-2.72,89-.11,98.17,6.05,102c3.63,2.23,8.05,2.74,12.23,2.8,4.86.07,9.75-.2,14.61-.42q15-.69,30-2.2a543.83,543.83,0,0,0,59.53-9.37c4.34-.93,9.26-2.18,13.53-.29,3.69,1.64,5.77,5.23,4.19,9.15-1.69,4.18-6,6.34-9.82,8.22q-6.75,3.34-13.53,6.67c-4.41,2.18-8.79,4.46-13.29,6.44a36.19,36.19,0,0,1-13.24,3.51,21.67,21.67,0,0,1-20-12,22,22,0,0,1-2.08-11.91c.19-1.92-2.81-1.91-3,0a24.65,24.65,0,0,0,9.57,21.92c7.13,5.41,16.13,6,24.46,3.31a96.47,96.47,0,0,0,12.9-5.63l13.81-6.81c4.18-2.06,8.72-3.88,12.41-6.76,3.2-2.5,5.79-6.39,5.38-10.62-.39-4-3.32-6.94-6.9-8.4-4.31-1.77-9.09-1-13.5-.07-9.88,2.07-19.78,4-29.75,5.61a538.47,538.47,0,0,1-60.37,6.19c-4.87.22-9.76.48-14.64.43-4.06,0-8.75-.44-12-3.16C4,96.49,2,92.79,3.27,89.5s5.37-4.5,8.61-5.08c4.73-.85,9.56-1.27,14.32-1.88l15.33-2,30.64-3.9c5.09-.65,10.18-1.25,15.26-2,4.06-.56,8.29-1.78,10.6-5.45a7.69,7.69,0,0,0-1.5-9.8c-3-2.87-7.18-4.25-10.9-5.86C66.75,45.44,47.84,37.35,29,29.08c-3.79-1.66-7.7-3.5-10.48-6.66-2.25-2.55-3.45-6.43-2.3-9.73,1.32-3.76,5.35-4.6,8.89-4.26,4.34.42,8.57,2.19,12.68,3.52L96.47,31l14.43,4.68c1.85.6,2.63-2.29.8-2.89Z"/><path d="M85,128.64c.69,7.3,6,12.91,12.24,16.21a40.57,40.57,0,0,0,24.55,3.79,41.69,41.69,0,0,0,21.24-9.86c5.73-5,11-12.13,12.17-19.81.65-4.29-.17-8.63-3.12-11.93a10.69,10.69,0,0,0-10.51-3.54,1.51,1.51,0,0,0,.8,2.9c2.94-.77,5.8.69,7.7,2.9a11.24,11.24,0,0,1,2.18,9.29c-1.12,6.75-5.67,12.92-10.62,17.43-10.78,9.83-27,13-40.58,7.33C95,140.8,88.7,135.69,88,128.64c-.18-1.9-3.18-1.92-3,0Z"/><path d="M143.45,137.3a46.9,46.9,0,0,0,37.47-6.46c5.85-4,10.43-9.39,15.77-13.94a39.34,39.34,0,0,1,39.06-7.15c1.81.66,2.6-2.24.79-2.89a42.46,42.46,0,0,0-37.28,4.35c-5.92,3.9-10.51,9.36-15.85,14a43.65,43.65,0,0,1-39.16,9.25c-1.88-.48-2.67,2.41-.8,2.89Z"/><path d="M235.59,110c6.13-.61,9.71-5.72,11.83-11a87.31,87.31,0,0,0,5-18.54c2-12.38,1.85-25.62-1.46-37.78-1.66-6.08-5.35-12.33-12-13.76-1.88-.4-2.69,2.49-.8,2.9,5.26,1.13,8.18,6,9.62,10.81a75.07,75.07,0,0,1,2.7,17,92.85,92.85,0,0,1-4.42,34.2c-1.67,5.1-4.16,12.57-10.51,13.21-1.9.19-1.92,3.19,0,3Z"/></g></g></svg>