<svg xmlns="http://www.w3.org/2000/svg" viewBox="0 0 211.05 178.92"><title>Fichier 3</title><g id="Calque_2" data-name="Calque 2"><g id="Calque_2-2" data-name="Calque 2"><path d="M4.61,59.12c11.78,9.38,24,19.08,31.94,32.11,4.19,6.88,6.65,14.5,9.1,22.12s5.06,15.11,9.18,22A106.61,106.61,0,0,0,69,153.5c5.33,5.66,11,11.08,16.75,16.28,5.11,4.61,11.35,9.29,18.58,9.13,5.72-.13,11.95-3.21,13.66-9,1.15-3.93-.15-8-1.91-11.53-1.88-3.8-4.21-7.41-6.46-11q-6.75-10.72-14.51-20.78-1.89-2.46-3.84-4.87l-2.12,2.12,33.3,25.79c9.62,7.45,19.15,15.59,30.49,20.29,5.36,2.23,11.36,3.7,17.19,3.28,5.46-.38,11-2.83,13.28-8.12s-.47-10.35-4.35-14a78.08,78.08,0,0,0-7.12-5.55l-8.38-6.18-37.93-28c-1.56-1.14-3,1.46-1.52,2.59l32,23.54,15.77,11.63c3.71,2.73,9,6.15,9.42,11.21.5,5.55-5,9-9.83,9.67-5.46.78-11.26-.57-16.34-2.51-10.72-4.11-19.77-11.75-28.74-18.69L91.23,121.69a1.5,1.5,0,0,0-2.12,2.12q7.69,9.54,14.47,19.77,3.35,5,6.45,10.23c2,3.39,4.35,6.89,5.15,10.82,1.31,6.42-4.14,10.8-10.08,11.24-6.88.51-12.77-4.12-17.57-8.49-10.9-9.9-22.07-20.36-29.79-33-4-6.56-6.58-13.68-8.93-21s-4.65-14.78-8.43-21.55C33.31,79.14,22.15,69.39,11,60.38Q8.86,58.69,6.73,57c-1.49-1.19-3.63.91-2.12,2.12Z"/><path d="M179.75,156.16c7.27,3.17,16.56,3.9,22.62-2.13a14,14,0,0,0,4.25-9.41,12.77,12.77,0,0,0-4.11-9.23,34,34,0,0,0-8.79-5.75c-3.92-2-7.82-3.94-11.67-6q-11.79-6.4-23-13.85a299.65,299.65,0,0,1-24.36-18c-1.48-1.22-3.62.89-2.12,2.12a307.23,307.23,0,0,0,40.61,28.22q5.42,3.14,10.94,6c3.42,1.8,6.94,3.43,10.33,5.28,2.76,1.5,5.66,3.27,7.47,5.91a9,9,0,0,1,.83,9c-3.74,8.41-14.15,8.51-21.5,5.29-1.75-.76-3.28,1.82-1.52,2.6Z"/><path d="M202.5,136.17c4.81-2.75,9.71-7.71,8.3-13.75-1.29-5.54-7.16-8.31-11.69-10.77A294.89,294.89,0,0,1,164.32,89.5Q155,82.6,146.24,75c-1.45-1.26-3.58.85-2.12,2.12a299.33,299.33,0,0,0,30.75,23.47q8,5.32,16.39,10.14c2.77,1.59,5.58,3.13,8.4,4.65a24,24,0,0,1,6.32,4.42,6.71,6.71,0,0,1,1.44,7.55c-1.26,2.77-3.85,4.79-6.43,6.26a1.5,1.5,0,0,0,1.51,2.59Z"/><path d="M206.29,116c2.92-5.46,2-12-.9-17.24S197.61,89.1,193.06,85a262.91,262.91,0,0,0-30.67-23.31c-21.75-14.3-45.06-26-68.16-37.94L50.84,1.41C49.12.53,47.6,3.11,49.32,4c24.19,12.47,48.5,24.72,72.51,37.53C143.88,53.28,165.64,66,184.91,82c5.23,4.34,10.69,8.82,15,14.08,4.11,5,7.07,12.21,3.76,18.39-.91,1.7,1.68,3.22,2.59,1.52Z"/><path d="M6.36,57.32c-2.2-.86-2.71-4-3-6.07a28.15,28.15,0,0,1-.15-7.56A36.3,36.3,0,0,1,8.42,28.93C14,19.71,23.1,13.29,32.52,8.38c2.74-1.42,5.54-2.76,8.37-4,2.6-1.13,6.17-2.43,8.63-.29C51,5.37,53.1,3.25,51.64,2c-5.09-4.43-12-.41-17.06,2a89.62,89.62,0,0,0-16,9.59C9.1,20.89,1.66,31.14.22,43.29a30.72,30.72,0,0,0,.43,9.94c.62,3,1.93,5.81,4.91,7,1.8.7,2.57-2.2.8-2.9Z"/></g></g></svg>