<svg xmlns="http://www.w3.org/2000/svg" viewBox="0 0 176.98 233.82"><title>Fichier 4</title><g id="Calque_2" data-name="Calque 2"><g id="Calque_2-2" data-name="Calque 2"><path d="M83.72,221.56c-3.89-18.7-7.91-38.08-4.48-57.18a62.49,62.49,0,0,1,9.51-24.14,78.66,78.66,0,0,1,15.46-16.46c12-9.94,25.86-17.41,38.29-26.81,6-4.53,12.46-10.68,12.3-18.81-.15-7.41-6.13-13.35-12.82-15.67-8.49-3-17.84.06-25.49,3.94-8.08,4.09-15.5,9.82-24.32,12.29-4.15,1.16-8.84,1.59-12.9-.16a11.69,11.69,0,0,1-6.93-7.81c-.85-3.75,1.21-7.4,4-9.81C79.5,58.13,83.85,57,88,56.43a154,154,0,0,1,29.27-.93,182,182,0,0,1,29.3,3.87c4.6,1,9.32,2.1,14.05,1.42a14.07,14.07,0,0,0,9.76-6,9.35,9.35,0,0,0,.38-10.12c-1.86-3.06-5.18-4.88-8.39-6.24-4.44-1.88-9-3.45-13.53-5.15l-14.25-5.37c-9.4-3.55-18.75-7.27-28.22-10.6a46.07,46.07,0,0,0-13.7-3A29,29,0,0,0,81.07,16.5c-6.94,2.76-13,7.26-19.74,10.35A28.81,28.81,0,0,1,51.14,29.6c-1.92.11-1.94,3.11,0,3,7.49-.44,14-4.16,20.39-7.83s13.18-7.62,20.88-7.44c4.75.11,9.36,1.54,13.79,3.13,4.7,1.69,9.35,3.5,14,5.26l28.27,10.66c4.38,1.65,8.89,3.12,13.17,5,3,1.34,6.51,3.28,7.29,6.76s-2,6.86-5,8.45c-4.06,2.19-9.09,1.42-13.41.55a230.63,230.63,0,0,0-29-4.4A184.16,184.16,0,0,0,92.35,53C84.31,53.65,75,55.25,70.76,63a12,12,0,0,0-.57,10.68,14.94,14.94,0,0,0,7.56,7.44c8.23,3.7,17.55.29,25-3.59,8-4.17,15.44-9.71,24.26-12.13,7.74-2.12,16.51-1.25,21.87,5.31a12.06,12.06,0,0,1,2.71,9.79c-.73,3.8-3.08,7-5.77,9.66a68.7,68.7,0,0,1-9,7.2c-3.17,2.25-6.41,4.42-9.65,6.56-6.44,4.26-13,8.45-19.15,13a103.74,103.74,0,0,0-16.91,15.24A63.37,63.37,0,0,0,79,153.14c-6.11,17.8-4.35,37-1,55.19.86,4.69,1.83,9.36,2.8,14,.39,1.89,3.29,1.09,2.9-.8Z"/><path d="M167,44.87c4,3.26,9.54,0,10-4.74.55-6-4.84-9.65-9.38-12.22-11-6.21-22.06-12.42-33.68-17.44S110.18,1.7,97.59.42A81,81,0,0,0,60.85,5.2a157.07,157.07,0,0,0-16.8,7.56,127.14,127.14,0,0,0-15,8.71A58.19,58.19,0,0,0,16.42,33a58.72,58.72,0,0,0-8,13.84C4.13,57,2.34,68.05,1.3,79A303.62,303.62,0,0,0,.15,116.75a314.23,314.23,0,0,0,11.66,75.8c.86,3,1.76,6,2.71,9,.58,1.84,3.48,1,2.89-.8A310.45,310.45,0,0,1,3.34,92.91C3.84,82,4.7,71,7.23,60.29c2.39-10,6.41-19.87,13.39-27.6C28,24.47,38,19.1,47.8,14.21,58.32,9,69.42,4.51,81.21,3.34s23.9.54,35.32,3.93,22.48,8.54,33.1,14.17c5.31,2.82,10.56,5.76,15.8,8.72,2.37,1.33,4.91,2.63,6.71,4.72,1.45,1.69,2.53,4.43,1.36,6.56-.76,1.39-3,2.45-4.43,1.31s-3.61.89-2.12,2.12Z"/><path d="M13.94,200.64A37,37,0,0,0,21.31,216c1.77,2.32,3.69,4.52,5.68,6.65a66,66,0,0,0,6.37,6.26c5,4,10.92,4.86,17.13,4.88a69.91,69.91,0,0,0,19.19-2.63,59.34,59.34,0,0,0,9.85-3.63c2.81-1.38,5.23-4,4.36-7.36a1.51,1.51,0,0,0-2.9.8c.72,2.72-3,4.06-4.95,4.83a69,69,0,0,1-8,2.71,66.78,66.78,0,0,1-17.06,2.28c-5.47,0-11-.45-15.46-4a59.38,59.38,0,0,1-5.79-5.65c-1.82-1.93-3.6-3.9-5.25-6-3.61-4.53-6.53-9.62-7.61-15.36-.36-1.9-3.25-1.09-2.89.8Z"/></g></g></svg>