<svg xmlns="http://www.w3.org/2000/svg" viewBox="0 0 214.21 190.42"><title>Fichier 5</title><g id="Calque_2" data-name="Calque 2"><g id="Calque_2-2" data-name="Calque 2"><path d="M209.55,71.31,179.9,92.5c-4.6,3.29-9.34,6.45-13.77,10-4,3.2-7.27,7-8.76,12s-1.38,10.12-1.73,15.18a61.7,61.7,0,0,1-2.71,14.23,62.91,62.91,0,0,1-14.64,24.68,61.8,61.8,0,0,1-25.38,15.76,63.06,63.06,0,0,1-14.77,2.91,60.71,60.71,0,0,1-7.63.07c-2.23-.11-5.32-.24-6.5-2.5s1.28-3.33,3-3.89a56.73,56.73,0,0,0,6.55-2.46,40.36,40.36,0,0,0,23.06-34.83,33.5,33.5,0,0,0-2.18-14.47c-1.57-3.65-4.71-7.5-9.1-7.25-4.83.28-7.5,4.9-9.85,8.52l-10,15.38-4.86,7.48c-1.06,1.62,1.54,3.13,2.59,1.51l10-15.38L98.09,132a25.32,25.32,0,0,1,4.27-5.64,4.73,4.73,0,0,1,5.25-.95,9.42,9.42,0,0,1,3.89,4.53c2.08,4.3,2.38,9.69,2.1,14.38A37.44,37.44,0,0,1,89,177.13c-2.05.74-4.33,1.15-6.13,2.46A5,5,0,0,0,81,185.33c1.67,5,7.87,5,12.21,5.08A65.76,65.76,0,0,0,135,175.72,64.62,64.62,0,0,0,152.58,153a65.91,65.91,0,0,0,4.68-13.65,89.8,89.8,0,0,0,1.65-14.53c.29-5.12.82-10.4,3.84-14.72s7.51-7,11.6-10l29.45-21,7.27-5.19c1.55-1.11.06-3.72-1.52-2.59Z"/><path d="M81.76,178.37c-8.05,4-18.55,1.4-24.24-5.43-3.61-4.33-4.67-10.17-5-15.64a111.76,111.76,0,0,1,.7-19.18,120.64,120.64,0,0,1,4.66-21.66c.57-1.85-2.32-2.64-2.89-.8a119,119,0,0,0-5.47,41.64c.34,6,1.55,12.26,5.35,17.13a23.32,23.32,0,0,0,12.24,8A22.78,22.78,0,0,0,83.28,181c1.73-.86.21-3.44-1.52-2.59Z"/><path d="M49.06,162.61c-4,1.7-8.87.06-11.84-2.91-3.29-3.3-4.64-8.1-4.78-12.65-.18-5.71,1.38-11.28,2.8-16.75l4.37-16.8,5-19.2c.49-1.87-2.41-2.67-2.89-.8Q36.84,112.22,32,130.93C29.37,141,26.79,154.15,35.5,162.2a14.18,14.18,0,0,0,15.07,3,1.5,1.5,0,0,0,.54-2,1.54,1.54,0,0,0-2-.54Z"/><path d="M30.4,146.29c-4.2,0-7.87-2.44-10.35-5.72-2.92-3.86-3.93-8.66-4-13.43C16,121.68,17,116.25,18,110.9q1.45-8.41,3.32-16.75,2.07-9.3,4.63-18.46a1.5,1.5,0,0,0-2.89-.8,365.84,365.84,0,0,0-8,35.69c-1.79,10.39-4.22,22.7,2.7,31.8,3.06,4,7.57,6.88,12.72,6.91a1.5,1.5,0,0,0,0-3Z"/><path d="M14.59,126.19C7.29,125.1,3.72,117.62,3.14,111a78.26,78.26,0,0,1,.35-12.62c.3-3.83.62-7.65,1.12-11.45,1-7.4,2.66-14.87,6.19-21.5A42,42,0,0,1,25.61,49.77C39,41.29,55.17,39.47,70.66,38.58c16-.92,32.42-.95,47.68-6.37,14.89-5.29,27.28-15.43,38.93-25.8q2.17-1.94,4.33-3.89C163,1.23,160.91-.89,159.48.4c-11.91,10.72-24.22,21.86-39.29,27.91-15.57,6.27-32.58,6.31-49.09,7.24-15.83.9-32.31,2.7-46.16,11.1A45.7,45.7,0,0,0,9.11,62.27C5.2,68.9,3.18,76.46,2,84c-.6,3.93-1,7.88-1.33,11.84A122.6,122.6,0,0,0,0,108.41c.15,7.27,2.48,15.14,9.15,19a13,13,0,0,0,4.64,1.64c1.89.28,2.7-2.61.79-2.89Z"/><path d="M160.63,3.09c2.92-.47,5.69.9,8.05,2.47a73.94,73.94,0,0,1,7.16,5.82,173.82,173.82,0,0,1,13.65,13.08c8.16,8.84,15.18,19,19,30.46a57.8,57.8,0,0,1,2.4,9.44c.42,2.6.51,5.74-1.71,7.56-1.49,1.22.64,3.34,2.13,2.12,4.65-3.81,2.53-11.37,1.2-16.24A74.12,74.12,0,0,0,204.92,40c-6.83-11.64-16.34-21.44-26.45-30.28C173.32,5.2,167.31-1,159.83.19c-1.9.3-1.09,3.2.8,2.9Z"/></g></g></svg>