<svg xmlns="http://www.w3.org/2000/svg" viewBox="0 0 186.73 239.59"><title>Fichier 6</title><g id="Calque_2" data-name="Calque 2"><g id="Calque_2-2" data-name="Calque 2"><path d="M72.93,226.73c1.48-7,3-14.14,2.7-21.33a35.89,35.89,0,0,0-5.94-18.58c-3.61-5.5-8.31-10.17-12.95-14.81l-16.2-16.22L24,139.21C18.77,134,13.33,128.92,8.35,123.47,4.58,119.34.23,112,5,106.85c4.36-4.66,11.51-2.94,16.47-.41,3.16,1.61,6.16,3.54,9.19,5.37l9.81,5.89,10.23,6.14c3.13,1.88,6.21,3.91,9.45,5.59,2.73,1.41,5.85,2.58,9,1.93a8.14,8.14,0,0,0,5.72-4.82,18.32,18.32,0,0,0,1.21-7.8c-.08-3.59-.44-7.19-.68-10.78L72.27,61.74,70.75,38.88c-.25-3.64-.58-7.29-.65-10.94a23.62,23.62,0,0,1,1.56-10.07C74,12.69,80.12,9,85.27,12.79c5.44,4.05,5.68,12,6.48,18.07q3,23,6,46l1.48,11.37a1.54,1.54,0,0,0,1.5,1.5,1.51,1.51,0,0,0,1.5-1.5Q99.15,64.71,96.1,41.24L94.55,29.38a58.52,58.52,0,0,0-1.94-10.76c-1.81-5.48-6.46-11-12.81-10.44-6.19.58-10.6,6-12,11.77a37,37,0,0,0-.62,10.71c.21,3.82.5,7.64.75,11.45l3.16,47.46,1.56,23.36c.29,4.38,2,13.38-3.63,15.34-3,1-6.35-.79-8.88-2.25-3.39-2-6.73-4-10.09-6L29.61,107.68c-5.5-3.3-11.56-7.32-18.29-6.71C5.16,101.53.07,105.74,0,112.22c-.07,6.79,4.7,11.92,9.19,16.42q8.44,8.46,16.9,16.93c10.92,10.93,22,21.71,32.75,32.83,4.49,4.65,8.86,9.68,11.4,15.7,2.85,6.76,2.79,14.25,1.76,21.39-.51,3.51-1.23,7-2,10.45-.4,1.88,2.5,2.69,2.89.79Z"/><path d="M91,12.39C89.49,9.52,91.2,6,93.66,4.3c3.08-2.17,7.06-1.36,10,.56,7.62,4.9,8.44,15.72,9.73,23.82q2.37,14.87,3.42,29.91.53,7.48.74,15c.09,3.39-.51,8.1,2.08,10.81a4.26,4.26,0,0,0,4.17,1.18,5.56,5.56,0,0,0,3.32-3.22,22.92,22.92,0,0,0,1.38-5.23c.45-2.25,1-4.5,1.51-6.72a138.51,138.51,0,0,1,15.64-37.72c2.22-3.69,4.49-7.66,7.82-10.49,2.91-2.47,7.41-3.91,10.83-1.56,3.08,2.11,4.07,6.23,3.81,9.75-.35,4.81-2.59,9.43-4.31,13.87l-5.46,14.1-11,28.43-2.68,6.93c-.7,1.81,2.2,2.59,2.89.8L159,64.93l5.72-14.8c1.89-4.87,4.09-9.73,5.49-14.77,1.18-4.22,1.4-8.65-.49-12.69a10.42,10.42,0,0,0-9-6.23c-9.43-.36-14.86,9.86-18.89,16.84a141.31,141.31,0,0,0-11.64,25.86,138.42,138.42,0,0,0-3.83,13.7c-.5,2.21-.8,4.49-1.39,6.68-.28,1-.94,3.36-2.41,3.19s-1.68-2.25-1.82-3.28a67.57,67.57,0,0,1-.21-6.83q-.24-7.87-.83-15.73Q118.54,41.21,116,25.69C114.55,17.09,113,7,104.89,2.06,101.53,0,97.22-.77,93.55.92a10.69,10.69,0,0,0-6,8,8.21,8.21,0,0,0,.88,5c.89,1.71,3.48.19,2.59-1.52Z"/><path d="M168.13,42.83a6.36,6.36,0,0,1,5.41-3.58,8.17,8.17,0,0,1,6.75,2.82C184.78,47,184,54.23,183,60.23c-2.62,14.7-5.47,29.36-8.21,44s-5.27,29.3-8.23,43.88c-1.34,6.58-3,13.2-5.84,19.3s-7.08,11.38-10.71,17a58.17,58.17,0,0,0-8.46,42.18c.36,1.89,3.25,1.09,2.9-.8a54.73,54.73,0,0,1,7.67-39.11c3.73-5.94,8.18-11.42,11.19-17.79a87.28,87.28,0,0,0,6.14-20c3.07-15.07,5.68-30.24,8.5-45.35l4.31-23c1.41-7.58,3.11-15.17,4.16-22.81,1-6.93.26-15-5.89-19.48-4.64-3.37-12.38-2.53-15,3.06-.8,1.74,1.78,3.27,2.59,1.51Z"/><path d="M141.36,226.25c.94,2-.5,4.31-2.15,5.41-2.05,1.38-4.63,1.76-7,2.16-5.61.94-11.28,1.47-17,1.85s-11.33.66-17,.84a61.44,61.44,0,0,1-16.13-1.1c-2.65-.62-5.59-1.42-7.72-3.18-1.67-1.39-3.08-4.21-1.5-6.19,1.2-1.49-.91-3.63-2.12-2.12a7,7,0,0,0-.93,7.11,10.62,10.62,0,0,0,5.74,5.38c5.72,2.6,12.27,3.16,18.48,3.17,6.65,0,13.34-.42,20-.83a178.11,178.11,0,0,0,20.09-2.23c3-.54,6.25-1.39,8.36-3.73a7.25,7.25,0,0,0,1.47-8c-.83-1.74-3.42-.22-2.59,1.51Z"/></g></g></svg>